<svg width="18" height="18" viewBox="0 0 18 18" fill="none" xmlns="http://www.w3.org/2000/svg">
<path d="M9 6.00049C7.37838 6.00049 6 7.37887 6 9.00049C6 10.6221 7.37838 12.0005 9 12.0005C10.6216 12.0005 12 10.6221 12 9.00049C12 7.37887 10.6216 6.00049 9 6.00049Z" fill="black"/>
<path d="M12.8455 0H5.23636C2.29091 0 0 2.29091 0 5.15455V12.7636C0 15.7091 2.29091 18 5.23636 18H12.8455C15.7091 18 18 15.7091 18 12.7636V5.15455C18 2.29091 15.7091 0 12.8455 0ZM9 13.7455C6.38182 13.7455 4.33636 11.6182 4.33636 9.08182C4.33636 6.54545 6.38182 4.33636 9 4.33636C11.6182 4.33636 13.6636 6.46364 13.6636 9C13.6636 11.5364 11.6182 13.7455 9 13.7455ZM13.8273 5.31818C13.2545 5.31818 12.7636 4.82727 12.7636 4.25455C12.7636 3.68182 13.2545 3.19091 13.8273 3.19091C14.4 3.19091 14.8909 3.68182 14.8909 4.25455C14.8909 4.82727 14.4 5.31818 13.8273 5.31818Z" fill="black"/>
</svg>
