<svg width="18" height="18" viewBox="0 0 18 18" fill="none" xmlns="http://www.w3.org/2000/svg">
<path d="M8.34629 0.0235953C6.53535 0.249962 5.025 1.45231 4.41269 3.15192C3.98965 4.32828 4.07129 5.73844 4.6205 6.83317C4.93593 7.46031 5.5 8.14684 6.01953 8.52535C6.2125 8.67008 6.24218 8.70348 6.18652 8.72574C6.14941 8.74059 5.95273 8.81481 5.74863 8.88903C4.35332 9.39742 2.90605 10.4402 1.96718 11.6129C0.738864 13.1492 0.0115202 15.1197 0.000387407 16.9455C-0.00332353 17.4761 0.0152311 17.5392 0.252731 17.7136L0.352926 17.7916H8.88437H17.4158L17.516 17.7136C17.7535 17.5392 17.7721 17.4798 17.7684 16.9269C17.7498 15.1048 17.0225 13.138 15.7978 11.6129C14.8478 10.4254 13.4191 9.39371 12.0201 8.88903C11.816 8.81481 11.6193 8.74059 11.5822 8.72574C11.5303 8.70348 11.5562 8.67008 11.7381 8.53649C12.0646 8.29899 12.6027 7.73121 12.8328 7.37496C13.1074 6.95192 13.2484 6.65875 13.3932 6.21344C14.024 4.29117 13.3523 2.17223 11.7195 0.932775C11.4041 0.687853 10.5914 0.287072 10.2203 0.183166C9.65996 0.0273062 8.85097 -0.0394906 8.34629 0.0235953ZM9.7416 1.29274C10.391 1.45973 10.918 1.76403 11.393 2.23903C11.8754 2.71774 12.1686 3.23727 12.343 3.90524C12.4617 4.35426 12.4617 5.16324 12.343 5.60113C12.1574 6.28766 11.8865 6.75153 11.3893 7.2525C10.7324 7.90934 9.99765 8.23961 9.08476 8.29899C7.58183 8.39176 6.14199 7.47887 5.58535 6.07985C5.38867 5.58629 5.34414 5.34137 5.34414 4.74762C5.34414 4.17985 5.40722 3.83473 5.58906 3.39313C5.82285 2.8402 6.3164 2.20563 6.78398 1.87535C7.22187 1.55992 7.79707 1.31871 8.32773 1.22594C8.63945 1.17028 9.41133 1.20738 9.7416 1.29274ZM10.1832 9.60524C12.9924 10.0988 15.2783 12.0545 16.1949 14.7486C16.3582 15.2236 16.5103 15.9175 16.5512 16.3554L16.5771 16.6226H8.88437H1.1916L1.21757 16.3517C1.2584 15.9175 1.41054 15.2236 1.57382 14.7486C2.53125 11.9357 4.98789 9.9318 7.93808 9.55328C8.50957 9.47906 9.61914 9.50504 10.1832 9.60524Z" fill="#050505"/>
</svg>
