<svg width="16" height="16" viewBox="0 0 16 16" fill="none" xmlns="http://www.w3.org/2000/svg">
<path fill-rule="evenodd" clip-rule="evenodd" d="M8.35398 11.354C8.30753 11.4006 8.25236 11.4375 8.19161 11.4627C8.13087 11.4879 8.06575 11.5009 7.99998 11.5009C7.93421 11.5009 7.86909 11.4879 7.80835 11.4627C7.7476 11.4375 7.69242 11.4006 7.64598 11.354L1.64598 5.35402C1.55209 5.26013 1.49935 5.1328 1.49935 5.00002C1.49935 4.86725 1.55209 4.73991 1.64598 4.64602C1.73987 4.55213 1.8672 4.49939 1.99998 4.49939C2.13275 4.49939 2.26009 4.55213 2.35398 4.64602L7.99998 10.293L13.646 4.64602C13.7399 4.55213 13.8672 4.49939 14 4.49939C14.1328 4.49939 14.2601 4.55213 14.354 4.64602C14.4479 4.73991 14.5006 4.86725 14.5006 5.00002C14.5006 5.1328 14.4479 5.26014 14.354 5.35402L8.35398 11.354Z" fill="black"/>
</svg>
